<svg width="75" height="75" viewBox="0 0 75 75" fill="none" xmlns="http://www.w3.org/2000/svg">
<rect width="75" height="75" fill="#EBECF1"/>
<path d="M25 40.6077C25 39.5202 25.7195 38.6387 26.6069 38.6387C27.4944 38.6387 28.2139 39.5202 28.2139 40.6077C28.2139 44.6582 30.8937 48.0002 34.1993 48.0002C37.505 48.0002 35.6625 48.0002 35.6625 48.0002C38.9682 48.0002 41.648 44.6582 41.648 40.6077C41.648 39.5202 42.3674 38.6387 43.2549 38.6387C44.1424 38.6387 44.8619 39.5202 44.8619 40.6077C44.8619 46.8332 40.7432 51.8799 35.6625 51.8799H34.1993C29.1187 51.8799 25 46.8332 25 40.6077Z" fill="#8F9ABE"/>
<path d="M45.1578 27.5832C46.2273 29.2302 48.4293 29.6992 50.0794 28.6326C51.7266 27.5631 52.1956 25.3613 51.126 23.7114C50.0565 22.0615 47.8545 21.5925 46.2044 22.662C44.5572 23.7314 44.0882 25.9361 45.1578 27.5832Z" fill="#8F9ABE"/>
<path d="M17.4141 25.6463C17.4141 27.6112 19.0071 29.2042 20.972 29.2042C22.9368 29.2042 24.5299 27.6112 24.5299 25.6463C24.5299 23.6814 22.9368 22.0884 20.972 22.0884C19.0071 22.0884 17.4141 23.6814 17.4141 25.6463Z" fill="#8F9ABE"/>
</svg>
