<svg width="15" height="15" viewBox="0 0 15 15" fill="none" xmlns="http://www.w3.org/2000/svg">
<rect width="15" height="15" rx="3" fill="#00D28E"/>
<path fill-rule="evenodd" clip-rule="evenodd" d="M7.70862 10.125C7.01865 10.125 6.45829 9.53731 6.45829 8.81215C6.45829 8.08768 7.01865 7.49999 7.70862 7.49999C8.39859 7.49999 8.95829 8.08768 8.95829 8.81215C8.95829 9.53731 8.39859 10.125 7.70862 10.125ZM6.00342 6.37384V3.125H4.375V11.6619H6.02476V10.993C6.02476 10.993 6.51211 11.875 7.74219 11.875C7.74219 11.875 10.625 11.7688 10.625 8.68961C10.625 8.68961 10.5183 5.56766 7.74219 5.56766C7.74219 5.56766 6.83082 5.56766 6.00342 6.37384Z" fill="white"/>
</svg>
