<svg width="24" height="24" viewBox="0 0 24 24" fill="none" xmlns="http://www.w3.org/2000/svg">
<path fill-rule="evenodd" clip-rule="evenodd" d="M6.5 8.5C6.22386 8.5 6 8.72386 6 9C6 9.27614 6.22386 9.5 6.5 9.5H17.5C17.7761 9.5 18 9.27614 18 9C18 8.72386 17.7761 8.5 17.5 8.5H6.5ZM6.5 12.5C6.22386 12.5 6 12.7239 6 13C6 13.2761 6.22386 13.5 6.5 13.5H17.5C17.7761 13.5 18 13.2761 18 13C18 12.7239 17.7761 12.5 17.5 12.5H6.5Z" fill="#6A6F7D"/>
<path fill-rule="evenodd" clip-rule="evenodd" d="M6.40272 21.3415L9.6501 18.5H20.0092C21.1018 18.5 22 17.6082 22 16.5081V5.49188C22 4.3934 21.1087 3.5 20.0092 3.5H3.9908C2.89821 3.5 2 4.3918 2 5.49188V16.5081C2 17.6066 2.89131 18.5 3.9908 18.5H5.6501V20.9971C5.6501 21.551 5.99385 21.6992 6.40272 21.3415ZM8.9916 17.7474L6.6501 19.7962V18.5C6.6501 17.9477 6.20239 17.5 5.6501 17.5H3.9908C3.44439 17.5 3 17.0551 3 16.5081V5.49188C3 4.94687 3.4477 4.5 3.9908 4.5H20.0092C20.5556 4.5 21 4.94488 21 5.49188V16.5081C21 17.0531 20.5523 17.5 20.0092 17.5H9.6501C9.40788 17.5 9.17389 17.5879 8.9916 17.7474Z" fill="#6A6F7D"/>
</svg>
