<svg width="24" height="24" viewBox="0 0 24 24" fill="none" xmlns="http://www.w3.org/2000/svg">
<path fill-rule="evenodd" clip-rule="evenodd" d="M12 21.2885C17.1299 21.2885 21.2885 17.1299 21.2885 12C21.2885 6.87012 17.1299 2.71154 12 2.71154C6.87012 2.71154 2.71154 6.87012 2.71154 12C2.71154 17.1299 6.87012 21.2885 12 21.2885ZM12 22.5C17.799 22.5 22.5 17.799 22.5 12C22.5 6.20101 17.799 1.5 12 1.5C6.20101 1.5 1.5 6.20101 1.5 12C1.5 17.799 6.20101 22.5 12 22.5Z" fill="#6A6F7D"/>
<g clip-path="url(#clip0)">
<path d="M15.9387 13.312V16.4535C15.9387 17.0247 15.4845 17.4976 14.9087 17.5303C14.2953 17.5678 13.7944 17.0668 13.7944 16.4488C13.7944 16.4207 13.7944 13.93 13.7944 13.312H12.6333V16.4395C12.6333 16.8796 12.7269 17.2635 12.9048 17.5678C13.0734 17.8534 13.3309 18.0875 13.6539 18.242C13.9957 18.4011 14.3937 18.4854 14.8478 18.4854C14.9508 18.4854 15.0585 18.4807 15.1615 18.4714C15.6905 18.4292 16.4022 18.242 16.8001 17.6193C17.0014 17.3056 17.0998 16.9076 17.0998 16.4441C17.0998 16.4161 17.0998 13.9347 17.0998 13.3167L15.9387 13.312Z" fill="#6A6F7D"/>
<path d="M8.07326 13.312H6.7998L8.7053 18.4339H9.87108L11.7485 13.312H10.4657L9.27649 16.8L8.07326 13.312Z" fill="#6A6F7D"/>
<path d="M10.4469 10.1612L10.578 10.0956C11.2148 9.78664 11.5612 9.22014 11.5612 8.49914C11.5659 7.26782 10.6717 6.5 9.23435 6.5H6.7998V12.2633H8.0358V7.59086H9.15476C9.78212 7.59086 10.1426 7.91391 10.166 8.49914C10.1754 8.67236 10.1426 8.85027 10.0724 9.00477C10.0068 9.14523 9.90853 9.27632 9.7868 9.384C9.66976 9.487 9.53399 9.57127 9.37949 9.62745C9.22967 9.68364 9.07049 9.71173 8.89726 9.71641H8.82703L10.3767 12.2633H11.6642L10.4469 10.1612Z" fill="#6A6F7D"/>
<path d="M13.8928 9.86155H16.7299V8.85495H13.8928V7.44573H16.9687V6.5H12.6287V12.2633H16.9687V11.3223H13.8928V9.86155Z" fill="#6A6F7D"/>
</g>
<defs>
<clipPath id="clip0">
<rect width="10.3" height="11.9901" fill="white" transform="translate(6.7998 6.5)"/>
</clipPath>
</defs>
</svg>
