<svg xmlns="http://www.w3.org/2000/svg" xmlns:xlink="http://www.w3.org/1999/xlink" width="20" height="15" viewBox="0 0 20 15">
  <defs>
    <rect id="ic-cn-a" width="20" height="15" x="0" y="0"/>
  </defs>
  <g fill="none" fill-rule="evenodd">
    <mask id="ic-cn-b" fill="#fff">
      <use xlink:href="#ic-cn-a"/>
    </mask>
    <use fill="#FF0202" xlink:href="#ic-cn-a"/>
    <g fill="#FDFE01" mask="url(#ic-cn-b)">
      <g transform="translate(.3 .5)">
        <polygon points="3.7 5.682 1.937 6.927 2.576 4.865 .847 3.573 3.005 3.544 3.7 1.5 4.395 3.544 6.553 3.573 4.824 4.865 5.463 6.927"/>
        <polygon points="8.045 8.386 7.427 8.845 7.651 8.085 7.045 7.609 7.802 7.598 8.045 6.845 8.288 7.598 9.045 7.609 8.439 8.085 8.663 8.845" transform="rotate(15 8.045 7.845)"/>
        <polygon points="9.69 6.406 9.102 6.821 9.315 6.133 8.739 5.703 9.458 5.693 9.69 5.012 9.922 5.693 10.641 5.703 10.065 6.133 10.278 6.821"/>
        <polygon points="10.138 3.272 9.52 3.731 9.744 2.971 9.138 2.495 9.895 2.484 10.138 1.731 10.382 2.484 11.138 2.495 10.532 2.971 10.756 3.731" transform="rotate(-30 10.138 2.73)"/>
        <polygon points="7.7 2.041 7.082 2.5 7.306 1.74 6.7 1.264 7.457 1.253 7.7 .5 7.943 1.253 8.7 1.264 8.094 1.74 8.318 2.5" transform="rotate(27 7.7 1.5)"/>
      </g>
    </g>
  </g>
</svg>
