<svg xmlns="http://www.w3.org/2000/svg" width="14" height="11" viewBox="0 0 14 11">
    <path fill-rule="evenodd" d="M9.293 5.488c1.289 1.33 2.59 2.67 3.877 3.999V1.49L9.293 5.488zM.825 9.528L4.76 5.47.825 1.447v8.08zm4.57-3.448l-3.942 4.066h11.095l-3.9-4.022-.095.095-1.16 1.195c-.265.273-.47.274-.735-.003-.426-.445-.847-.893-1.262-1.331zM12.56.86H1.415L7.01 6.58 12.559.86zM0 9.872V1.13c.006-.013.015-.025.017-.038C.102.464.631-.012 1.307 0c.543.01 1.085.002 1.627.002h9.761c.76 0 1.301.536 1.302 1.304.004 2.797.004 5.593-.004 8.39 0 .195-.046.406-.128.582-.233.505-.65.722-1.183.722H1.322l-.096-.001c-.395-.018-.72-.176-.968-.5-.143-.186-.206-.403-.258-.627z"/>
</svg>
