<svg xmlns="http://www.w3.org/2000/svg" width="32" height="32" viewBox="0 0 32 32">
    <defs>
        <linearGradient id="a" x1="9.17%" x2="90.014%" y1="90.847%" y2="9.97%">
            <stop offset="0%" stop-color="#FFC107"/>
            <stop offset="50.7%" stop-color="#F44336"/>
            <stop offset="100%" stop-color="#9C27B0"/>
        </linearGradient>
        <linearGradient id="b" x1="14.646%" x2="84.647%" y1="85.354%" y2="15.353%">
            <stop offset="0%" stop-color="#FFC107"/>
            <stop offset="50.7%" stop-color="#F44336"/>
            <stop offset="100%" stop-color="#9C27B0"/>
        </linearGradient>
        <linearGradient id="c" x1="14.648%" x2="84.645%" y1="85.361%" y2="15.355%">
            <stop offset="0%" stop-color="#FFC107"/>
            <stop offset="50.7%" stop-color="#F44336"/>
            <stop offset="100%" stop-color="#9C27B0"/>
        </linearGradient>
    </defs>
    <g fill="none" fill-rule="evenodd" transform="translate(1 1)">
        <circle cx="15" cy="15" r="15" fill="#FFF" stroke="#EBEBEB"/>
        <g fill-rule="nonzero">
            <path fill="url(#a)" d="M14.94 4.4c-.035-.795-.164-1.341-.348-1.815a3.653 3.653 0 0 0-.865-1.328 3.684 3.684 0 0 0-1.325-.862c-.477-.184-1.02-.313-1.816-.348C9.785.009 9.531 0 7.5 0 5.466 0 5.212.009 4.414.044c-.796.035-1.342.164-1.816.348-.503.19-.953.482-1.328.865-.38.375-.675.828-.862 1.325-.184.477-.313 1.02-.348 1.816-.038.8-.047 1.055-.047 3.087 0 2.033.009 2.287.044 3.085.035.795.164 1.342.348 1.816.19.503.485.953.865 1.327.375.38.828.676 1.325.863.477.184 1.02.313 1.816.348.798.035 1.052.044 3.085.044 2.032 0 2.286-.009 3.084-.044.796-.035 1.343-.164 1.816-.348a3.828 3.828 0 0 0 2.19-2.19c.184-.477.313-1.02.348-1.816.035-.798.044-1.052.044-3.085 0-2.032-.003-2.286-.038-3.084zm-1.348 6.112c-.032.73-.155 1.125-.257 1.389a2.483 2.483 0 0 1-1.421 1.42c-.263.103-.661.226-1.39.258-.789.035-1.025.044-3.023.044-1.997 0-2.236-.009-3.023-.044-.731-.032-1.126-.155-1.389-.257-.324-.12-.62-.31-.86-.559a2.327 2.327 0 0 1-.558-.86c-.102-.263-.225-.66-.257-1.388-.035-.79-.044-1.027-.044-3.024s.009-2.237.044-3.023c.032-.731.155-1.126.257-1.389.12-.325.31-.62.562-.86.242-.248.534-.438.86-.558.262-.102.66-.225 1.388-.257.79-.036 1.026-.044 3.023-.044 2 0 2.237.008 3.024.044.73.032 1.126.155 1.389.257.324.12.62.31.86.558.248.243.438.535.558.86.102.263.225.66.257 1.389.035.79.044 1.026.044 3.023s-.009 2.231-.044 3.02z" transform="translate(7.5 7.5)"/>
            <path fill="url(#b)" d="M7.499 3.64a3.846 3.846 0 0 0 0 7.69 3.846 3.846 0 0 0 0-7.69zm0 6.34a2.495 2.495 0 1 1 0-4.99 2.495 2.495 0 0 1 0 4.99z" transform="translate(7.5 7.5)"/>
            <path fill="url(#c)" d="M12.393 3.59a1 1 0 1 1-2 0 1 1 0 0 1 2 0z" transform="translate(7.5 7.5)"/>
        </g>
    </g>
</svg>
