<svg xmlns="http://www.w3.org/2000/svg" width="32" height="32" viewBox="0 0 32 32">
    <g fill="none" fill-rule="evenodd" transform="translate(1 1)">
        <circle cx="15" cy="15" r="15" fill="#FFF" stroke="#EBEBEB"/>
        <path fill="#4267B2" d="M18.69 8.503L16.774 8.5c-2.154 0-3.545 1.43-3.545 3.644v1.318H11.3a.302.302 0 0 0-.301.302v2.434c0 .167.135.302.301.302h1.928v5.2c0 .167.134.302.301.302h2.514a.302.302 0 0 0 .302-.302v-5.2h2.253a.302.302 0 0 0 .302-.302v-2.434a.303.303 0 0 0-.301-.302h-2.254V12.4c0-.685.163-1.032 1.053-1.032h1.291a.302.302 0 0 0 .301-.303v-2.26a.302.302 0 0 0-.3-.302z"/>
    </g>
</svg>
