<svg xmlns="http://www.w3.org/2000/svg" width="15" height="15"><g fill="#BBB" fill-rule="evenodd"><path fill-rule="nonzero" d="M7.5 14.063A6.562 6.562 0 1 0 7.5.938a6.562 6.562 0 0 0 0 13.124zm0 .937a7.5 7.5 0 1 1 0-15 7.5 7.5 0 0 1 0 15z"/><path d="M6.573 9.237c0-.583.07-1.047.212-1.393.142-.345.4-.685.777-1.02.377-.335.628-.608.753-.818a1.28 1.28 0 0 0 .187-.665c0-.703-.325-1.055-.974-1.055-.308 0-.554.095-.74.284-.185.19-.282.45-.29.783h-1.81c.008-.795.265-1.417.77-1.866.506-.45 1.196-.675 2.07-.675.882 0 1.567.214 2.054.64.487.427.73 1.03.73 1.808a2.2 2.2 0 0 1-.237 1.002c-.158.314-.435.663-.83 1.046l-.506.48c-.316.304-.497.66-.543 1.068l-.025.38H6.573zm-.181 1.916c0-.279.095-.509.284-.69.19-.18.432-.271.727-.271.296 0 .538.09.728.271a.915.915 0 0 1 .284.69.906.906 0 0 1-.278.68c-.185.18-.43.27-.734.27s-.548-.09-.733-.27a.906.906 0 0 1-.278-.68z"/></g></svg>