<svg xmlns="http://www.w3.org/2000/svg" width="20" height="15"><g fill="none" fill-rule="evenodd"><path fill="#FF4B55" fill-rule="nonzero" d="M11.891 4.685a3.442 3.442 0 0 0-4.77.956 1.72 1.72 0 1 0 2.86 1.908 1.72 1.72 0 1 1 2.861 1.908 3.441 3.441 0 0 0-.95-4.772"/><path fill="#41479B" fill-rule="nonzero" d="M7.12 5.64a1.72 1.72 0 1 0 2.862 1.91 1.72 1.72 0 1 1 2.861 1.908 3.436 3.436 0 0 1-4.77.956A3.442 3.442 0 0 1 7.12 5.64"/><path d="M13.642 3.386l.625.94a.172.172 0 0 1-.047.238l-.159.106a.172.172 0 0 1-.239-.048l-.626-.94a.172.172 0 0 1 .048-.238l.16-.106a.172.172 0 0 1 .238.048zm.965 1.448l.627.94a.172.172 0 0 1-.048.239l-.16.105a.172.172 0 0 1-.238-.048l-.626-.938a.172.172 0 0 1 .047-.239l.159-.106a.172.172 0 0 1 .239.047zm-.296-1.895l1.592 2.389a.172.172 0 0 1-.048.238l-.16.107a.172.172 0 0 1-.238-.048l-1.592-2.388a.172.172 0 0 1 .047-.24l.16-.106a.172.172 0 0 1 .24.048zm.668-.446l.626.941a.172.172 0 0 1-.048.24l-.16.105a.172.172 0 0 1-.237-.049l-.627-.94a.172.172 0 0 1 .048-.238l.16-.107a.172.172 0 0 1 .238.048zm.965 1.452l.626.94a.172.172 0 0 1-.048.238l-.159.106a.172.172 0 0 1-.239-.048l-.625-.94a.172.172 0 0 1 .047-.238l.16-.106a.172.172 0 0 1 .238.048zM5.174 9.03l1.592 2.387a.172.172 0 0 1-.048.238l-.16.107a.172.172 0 0 1-.238-.048L4.73 9.328a.172.172 0 0 1 .047-.239l.16-.106a.172.172 0 0 1 .238.048zm-.668.447l.625.937a.172.172 0 0 1-.047.239l-.159.106a.172.172 0 0 1-.239-.048l-.625-.937a.172.172 0 0 1 .047-.238l.16-.107a.172.172 0 0 1 .238.048zm.966 1.449l.625.94a.172.172 0 0 1-.047.238l-.16.106a.172.172 0 0 1-.238-.047l-.626-.94a.172.172 0 0 1 .048-.238l.159-.107a.172.172 0 0 1 .239.048zM3.838 9.923l1.59 2.386a.172.172 0 0 1-.047.239l-.159.106a.172.172 0 0 1-.239-.047L3.392 10.22a.172.172 0 0 1 .047-.24l.16-.106a.172.172 0 0 1 .239.048zm.891-4.149L6.32 3.385c.053-.079.16-.1.239-.047l.16.106c.078.053.1.16.047.239L5.174 6.07a.172.172 0 0 1-.238.048l-.159-.106a.172.172 0 0 1-.048-.238zm-.669-.446l1.592-2.389c.053-.079.16-.1.239-.047l.159.106c.079.053.1.16.047.238l-1.59 2.39a.174.174 0 0 1-.24.047l-.159-.107a.172.172 0 0 1-.048-.238zm-.669-.444l1.592-2.391c.053-.08.16-.1.24-.048l.158.107c.079.052.1.159.048.238L3.838 5.18c-.053.08-.16.1-.239.048l-.16-.106a.172.172 0 0 1-.048-.239zm9.806 6.533l.625-.937c.053-.08.16-.1.24-.048l.158.106c.078.053.1.16.047.239l-.625.937c-.053.08-.16.1-.239.048l-.159-.107a.172.172 0 0 1-.047-.238zm.965-1.445l.626-.941c.053-.08.16-.1.239-.048l.16.106c.079.053.1.16.047.24l-.628.94a.172.172 0 0 1-.238.047l-.158-.105a.172.172 0 0 1-.048-.239zm-.297 1.893l.626-.939c.052-.08.16-.1.238-.048l.16.107c.08.053.1.16.048.238l-.626.94c-.052.08-.16.1-.238.048l-.16-.107a.172.172 0 0 1-.048-.239zm.965-1.451l.627-.938c.053-.078.16-.1.238-.047l.16.107c.08.052.1.16.048.238l-.626.938a.172.172 0 0 1-.239.047l-.16-.106a.172.172 0 0 1-.047-.24zm-.297 1.896l.627-.939a.172.172 0 0 1 .238-.048l.159.106c.08.052.101.16.048.239l-.626.939a.173.173 0 0 1-.239.048l-.16-.107a.172.172 0 0 1-.047-.239zm.967-1.448l.624-.939c.053-.079.16-.1.24-.047l.158.106c.079.053.1.16.047.238l-.625.938a.172.172 0 0 1-.238.048l-.159-.105a.172.172 0 0 1-.048-.239z" fill="#464655" fill-rule="nonzero"/><path stroke="#F1F1F1" stroke-width=".5" d="M.25.25h19.5v14.5H.25z"/></g></svg>