<svg width="26" height="26" xmlns="http://www.w3.org/2000/svg"><path d="M8.12 2c-1.962 0-3.774.925-5.37 2.718-2.4 2.696-2.494 7.418.732 10.553.695.675 2.507 2.584 5.021 5.274 1.521 1.628 3.106 3.335 3.886 4.178a.86.86 0 0 0 1.258.003c.755-.813 2.37-2.546 3.895-4.173 2.52-2.69 4.33-4.603 5.02-5.289 3.163-3.147 3.076-7.859.73-10.54C21.742 2.95 19.88 2 17.918 2 15.966 2 14.183 3.07 13 4.884 11.823 3.07 10.054 2 8.12 2zm1.084 17.891c-2.529-2.706-4.342-4.616-5.053-5.307-2.84-2.76-2.757-6.9-.685-9.23 1.425-1.6 2.985-2.396 4.654-2.396 1.801 0 3.46 1.148 4.453 3.101L13 6.9l.428-.84c.996-1.953 2.667-3.1 4.49-3.1 1.668 0 3.274.82 4.652 2.395 2.027 2.317 2.103 6.457-.684 9.231-.702.698-2.514 2.611-5.045 5.313a1584.093 1584.093 0 0 0-3.822 4.095 1298.03 1298.03 0 0 0-3.815-4.102z" fill="#CCC" fill-rule="evenodd"/></svg>