<svg width="18" height="18" viewBox="0 0 18 18" fill="none" xmlns="http://www.w3.org/2000/svg">
<path d="M17.6291 4.567C17.4216 3.74101 16.8137 3.08993 16.0427 2.86751C14.6341 2.45459 8.99982 2.45459 8.99982 2.45459C8.99982 2.45459 3.36565 2.45459 1.95707 2.85177C1.20094 3.07404 0.578153 3.74116 0.37065 4.567C0 6.07569 0 9.20459 0 9.20459C0 9.20459 0 12.3492 0.37065 13.8422C0.57829 14.668 1.18611 15.3192 1.95721 15.5417C3.38048 15.9546 8.99996 15.9546 8.99996 15.9546C8.99996 15.9546 14.6341 15.9546 16.0427 15.5574C16.8138 15.3351 17.4216 14.6839 17.6293 13.8581C17.9999 12.3492 17.9999 9.22048 17.9999 9.22048C17.9999 9.22048 18.0148 6.07569 17.6291 4.567Z" fill="#D4D8E0"/>
<path d="M7.04346 11.5295C7.04346 11.8334 7.36902 12.0263 7.63558 11.8803L11.8811 9.55543C12.1582 9.40365 12.1582 9.00553 11.8811 8.85375L7.63558 6.52885C7.36902 6.38287 7.04346 6.57577 7.04346 6.87969L7.04346 11.5295Z" fill="white"/>
</svg>
