<svg width="28" height="28" viewBox="0 0 28 28" fill="none" xmlns="http://www.w3.org/2000/svg">
<path d="M20.5208 17.0068V17.1332L20.5681 17.2503L21.8242 20.3591H5.96368L7.21975 17.2503L7.26708 17.1332V17.0068V12.2041C7.26708 8.59051 10.2279 5.65 13.8939 5.65C17.56 5.65 20.5208 8.59051 20.5208 12.2041V17.0068Z" stroke="#222222" stroke-width="1.3"/>
<path fill-rule="evenodd" clip-rule="evenodd" d="M11.726 21.8985C11.9274 23.0112 12.901 23.8552 14.0718 23.8552C15.2426 23.8552 16.2162 23.0112 16.4176 21.8985H11.726Z" fill="#222222"/>
<path d="M15.3447 7.68527C17.5857 8.32555 18.7457 9.81705 18.7457 12.0708C18.7457 12.314 18.5486 12.5111 18.3055 12.5111C18.0623 12.5111 17.8652 12.314 17.8652 12.0708C17.8652 10.2156 16.9708 9.0656 15.1028 8.53189C14.869 8.46509 14.7336 8.22142 14.8004 7.98763C14.8672 7.75384 15.1109 7.61847 15.3447 7.68527Z" fill="#222222"/>
<path fill-rule="evenodd" clip-rule="evenodd" d="M15.3721 7.5891C15.0852 7.50713 14.7862 7.67326 14.7042 7.96015C14.6223 8.24704 14.7884 8.54606 15.0753 8.62803C15.9954 8.89091 16.6651 9.30246 17.1056 9.86728C17.5458 10.4316 17.7652 11.1595 17.7652 12.0708C17.7652 12.3692 18.0071 12.6111 18.3055 12.6111C18.6038 12.6111 18.8457 12.3692 18.8457 12.0708C18.8457 10.9263 18.5509 9.96715 17.9645 9.21167C17.3785 8.4565 16.508 7.91363 15.3721 7.5891ZM14.8965 8.01509C14.9482 7.83441 15.1365 7.72978 15.3172 7.78141C16.4223 8.09716 17.2523 8.62019 17.8065 9.33429C18.3605 10.0481 18.6457 10.9615 18.6457 12.0708C18.6457 12.2587 18.4934 12.4111 18.3055 12.4111C18.1175 12.4111 17.9652 12.2587 17.9652 12.0708C17.9652 11.1269 17.7374 10.3521 17.2633 9.74428C16.7896 9.13686 16.0782 8.70656 15.1302 8.43572C14.9495 8.3841 14.8449 8.19578 14.8965 8.01509Z" fill="#222222"/>
</svg>
