<svg width="50" height="50" viewBox="0 0 50 50" fill="none" xmlns="http://www.w3.org/2000/svg">
<path fill-rule="evenodd" clip-rule="evenodd" d="M18.7741 19.7364L19.4829 21.0386L20.1916 19.7364H24.3174C25.7051 19.7364 26.83 18.6171 26.83 17.2364V11.1667C26.83 9.78595 25.7051 8.66666 24.3174 8.66666H15.1876C13.8 8.66666 12.6751 9.78595 12.6751 11.1667V17.2364C12.6751 18.6171 13.8 19.7364 15.1876 19.7364H18.7741ZM18.7464 22.3917C18.7466 22.3914 18.7468 22.3911 18.7469 22.3907L18.7464 22.3917ZM11 11.1667C11 8.86548 12.8749 7 15.1876 7H24.3174C26.6302 7 28.505 8.86548 28.505 11.1667V17.2364C28.505 19.5376 26.6302 21.403 24.3174 21.403H21.1894L20.2193 23.1854C19.9026 23.7674 19.0632 23.7674 18.7464 23.1854L17.7763 21.403H15.1876C12.8749 21.403 11 19.5376 11 17.2364V11.1667Z" fill="black"/>
<path d="M17.7914 12.3501C17.8422 12.0982 17.8845 11.8738 17.9324 11.6521C18.0015 11.3227 18.3147 11.1141 18.6391 11.1784C18.972 11.244 19.168 11.5353 19.1017 11.8646C19.0707 12.0208 19.0397 12.1769 19.0072 12.3409H20.9664C21.0129 12.1126 21.0581 11.8909 21.1046 11.6691C21.1737 11.3332 21.4671 11.1233 21.7944 11.1757C22.1428 11.2309 22.343 11.53 22.2711 11.883C22.2401 12.0326 22.2133 12.1835 22.1808 12.3501H22.5885C23.2782 12.3501 23.5603 12.5089 23.5631 12.8986C23.5659 13.2949 23.281 13.4563 22.5786 13.4563H21.9566C21.8719 13.8788 21.7887 14.2868 21.7027 14.7107C22.0088 14.7107 22.2993 14.7107 22.5885 14.7107C22.9749 14.712 23.2429 14.9377 23.2458 15.2604C23.2486 15.5832 22.9806 15.8155 22.5969 15.8168C22.2288 15.8181 21.8592 15.8168 21.4812 15.8168C21.4333 16.0543 21.3881 16.276 21.3416 16.4978C21.2697 16.8429 20.9636 17.0528 20.6321 16.9885C20.2908 16.9216 20.1032 16.6329 20.1737 16.2852C20.2047 16.1356 20.2329 15.9848 20.2626 15.826H18.3048C18.2583 16.0543 18.2131 16.276 18.1666 16.4978C18.0946 16.8429 17.7886 17.0528 17.4571 16.9885C17.1158 16.9216 16.9282 16.6329 16.9987 16.2852C17.0297 16.1356 17.0579 15.9848 17.0904 15.8168C16.9282 15.8168 16.7758 15.8207 16.6249 15.8168C16.2864 15.8076 16.0297 15.5714 16.0254 15.2709C16.0212 14.9626 16.2836 14.7198 16.632 14.7133C16.8548 14.7093 17.0791 14.7133 17.3146 14.7133C17.3993 14.2908 17.4825 13.884 17.5685 13.4589C17.4613 13.4589 17.3696 13.4589 17.278 13.4589C16.6235 13.4589 16.347 13.2962 16.3428 12.9091C16.3386 12.5194 16.6249 12.3514 17.2878 12.3514H17.7914V12.3501ZM18.7787 13.4628C18.6941 13.884 18.6137 14.2895 18.5305 14.7002H20.4925C20.5757 14.2842 20.6575 13.8788 20.7407 13.4628H18.7801H18.7787Z" fill="black"/>
<path fill-rule="evenodd" clip-rule="evenodd" d="M19.794 40.3333C23.7257 40.3333 26.913 37.162 26.913 33.25C26.913 29.338 23.7257 26.1667 19.794 26.1667C15.8623 26.1667 12.6751 29.338 12.6751 33.25C12.6751 37.162 15.8623 40.3333 19.794 40.3333ZM19.794 42C24.6509 42 28.5881 38.0825 28.5881 33.25C28.5881 28.4175 24.6509 24.5 19.794 24.5C14.9372 24.5 11 28.4175 11 33.25C11 38.0825 14.9372 42 19.794 42Z" fill="black"/>
<path fill-rule="evenodd" clip-rule="evenodd" d="M16.8627 30.3333C17.3252 30.3333 17.7002 30.7063 17.7002 31.1666V31.9999C17.7002 32.4602 17.3252 32.8333 16.8627 32.8333C16.4001 32.8333 16.0251 32.4602 16.0251 31.9999V31.1666C16.0251 30.7063 16.4001 30.3333 16.8627 30.3333Z" fill="black"/>
<path fill-rule="evenodd" clip-rule="evenodd" d="M28.5883 30.3333C29.0508 30.3333 29.4258 30.7063 29.4258 31.1666V31.9999C29.4258 32.4602 29.0508 32.8333 28.5883 32.8333C28.1257 32.8333 27.7507 32.4602 27.7507 31.9999V31.1666C27.7507 30.7063 28.1257 30.3333 28.5883 30.3333Z" fill="black"/>
<path fill-rule="evenodd" clip-rule="evenodd" d="M17.0468 34.8128C17.3358 34.4534 17.8628 34.3951 18.224 34.6826C19.1423 35.4136 20.447 35.4136 21.3653 34.6826C21.7265 34.3951 22.2535 34.4534 22.5425 34.8128C22.8314 35.1722 22.7729 35.6966 22.4117 35.9841C20.8817 37.202 18.7076 37.202 17.1776 35.9841C16.8164 35.6966 16.7579 35.1722 17.0468 34.8128Z" fill="black"/>
<path fill-rule="evenodd" clip-rule="evenodd" d="M28.7714 34.8128C29.0604 34.4534 29.5875 34.3951 29.9486 34.6826C30.8669 35.4136 32.1716 35.4136 33.0899 34.6826C33.4511 34.3951 33.9781 34.4534 34.2671 34.8128C34.556 35.1722 34.4975 35.6966 34.1363 35.9841C32.6063 37.202 30.4322 37.202 28.9022 35.9841C28.5411 35.6966 28.4825 35.1722 28.7714 34.8128Z" fill="black"/>
<path fill-rule="evenodd" clip-rule="evenodd" d="M22.725 30.3333C23.1875 30.3333 23.5625 30.7063 23.5625 31.1666V31.9999C23.5625 32.4602 23.1875 32.8333 22.725 32.8333C22.2624 32.8333 21.8874 32.4602 21.8874 31.9999V31.1666C21.8874 30.7063 22.2624 30.3333 22.725 30.3333Z" fill="black"/>
<path fill-rule="evenodd" clip-rule="evenodd" d="M34.4515 30.3333C34.9141 30.3333 35.2891 30.7063 35.2891 31.1666V31.9999C35.2891 32.4602 34.9141 32.8333 34.4515 32.8333C33.989 32.8333 33.614 32.4602 33.614 31.9999V31.1666C33.614 30.7063 33.989 30.3333 34.4515 30.3333Z" fill="black"/>
<path fill-rule="evenodd" clip-rule="evenodd" d="M27.4327 37.0697C27.1547 37.5602 26.8255 38.0182 26.4522 38.4363C27.784 39.6163 29.5393 40.3333 31.4629 40.3333C35.6259 40.3333 39.0007 36.9754 39.0007 32.8333C39.0007 28.6911 35.6259 25.3333 31.4629 25.3333C29.3524 25.3333 27.4445 26.1963 26.0762 27.587C26.4779 27.9793 26.8378 28.4139 27.1486 28.8835C28.22 27.7255 29.7563 26.9999 31.4629 26.9999C34.7008 26.9999 37.3256 29.6116 37.3256 32.8333C37.3256 36.0549 34.7008 38.6666 31.4629 38.6666C29.9018 38.6666 28.4833 38.0595 27.4327 37.0697Z" fill="black"/>
</svg>
