<svg width="50" height="50" viewBox="0 0 50 50" fill="none" xmlns="http://www.w3.org/2000/svg">
<path fill-rule="evenodd" clip-rule="evenodd" d="M27.2264 31.0656L28.4505 33.3697L29.7168 30.9862H36.758C38.1638 30.9862 39.3034 29.8246 39.3034 28.3916V21.3243C39.3034 19.8914 38.1638 18.7297 36.758 18.7297H26.5978C25.192 18.7297 24.0524 19.8914 24.0524 21.3243V28.3916C24.0524 29.7334 25.053 30.8392 26.3339 30.9726L27.2264 31.0656ZM22.3555 21.3243C22.3555 18.9361 24.2548 17 26.5978 17H36.758C39.101 17 41.0004 18.9361 41.0004 21.3243V28.3916C41.0004 30.7799 39.101 32.716 36.758 32.716H30.7277L29.1966 35.5978C28.8757 36.2018 28.0253 36.2018 27.7044 35.5978L26.1614 32.6934C24.0234 32.4707 22.3555 30.6297 22.3555 28.3916V21.3243Z" fill="black"/>
<path fill-rule="evenodd" clip-rule="evenodd" d="M18.0908 10.7297H28.2725C30.1469 10.7297 31.6664 12.2786 31.6664 14.1892V17H33.3634V14.1892C33.3634 11.3233 31.0841 9 28.2725 9H18.0908C15.2793 9 13 11.3233 13 14.1892V35.8108C13 38.6767 15.2793 41 18.0908 41H28.2725C31.0841 41 33.3634 38.6767 33.3634 35.8108V32.0695H31.6664V35.8108C31.6664 37.7214 30.1469 39.2703 28.2725 39.2703H18.0908C16.2165 39.2703 14.6969 37.7214 14.6969 35.8108V14.1892C14.6969 12.2786 16.2165 10.7297 18.0908 10.7297Z" fill="black"/>
<path d="M29.4117 22.5117C29.4688 22.2129 29.5165 21.9468 29.5705 21.6838C29.6483 21.2931 30.0007 21.0457 30.3659 21.1219C30.7406 21.1998 30.9613 21.5453 30.8867 21.9359C30.8517 22.1211 30.8168 22.3063 30.7803 22.5009H32.9856C33.038 22.23 33.0888 21.967 33.1412 21.704C33.219 21.3056 33.5492 21.0566 33.9176 21.1188C34.3097 21.1842 34.5352 21.539 34.4542 21.9577C34.4193 22.1351 34.3891 22.3141 34.3526 22.5117H34.8115C35.5878 22.5117 35.9054 22.7001 35.9086 23.1623C35.9117 23.6323 35.591 23.8237 34.8003 23.8237H34.1002C34.0049 24.3249 33.9112 24.8089 33.8144 25.3116C34.1589 25.3116 34.486 25.3116 34.8115 25.3116C35.2465 25.3131 35.5481 25.5808 35.5513 25.9637C35.5545 26.3466 35.2528 26.622 34.821 26.6236C34.4066 26.6251 33.9906 26.6236 33.5651 26.6236C33.5111 26.9053 33.4603 27.1683 33.4079 27.4313C33.327 27.8406 32.9824 28.0896 32.6093 28.0134C32.2251 27.934 32.0139 27.5916 32.0933 27.1792C32.1282 27.0018 32.16 26.8228 32.1933 26.6345H29.9896C29.9372 26.9053 29.8864 27.1683 29.834 27.4313C29.753 27.8406 29.4085 28.0896 29.0354 28.0134C28.6512 27.934 28.44 27.5916 28.5194 27.1792C28.5543 27.0018 28.5861 26.8228 28.6226 26.6236C28.44 26.6236 28.2685 26.6282 28.0987 26.6236C27.7176 26.6127 27.4286 26.3325 27.4239 25.9761C27.4191 25.6104 27.7144 25.3225 28.1066 25.3147C28.3575 25.31 28.6099 25.3147 28.875 25.3147C28.9703 24.8136 29.064 24.3311 29.1608 23.8268C29.0402 23.8268 28.937 23.8268 28.8338 23.8268C28.0971 23.8268 27.7859 23.6339 27.7811 23.1747C27.7764 22.7125 28.0987 22.5133 28.8449 22.5133H29.4117V22.5117ZM30.5231 23.8315C30.4278 24.3311 30.3373 24.812 30.2436 25.2991H32.4521C32.5458 24.8058 32.6379 24.3249 32.7316 23.8315H30.5247H30.5231Z" fill="black"/>
<path fill-rule="evenodd" clip-rule="evenodd" d="M19.7871 13.3243C19.7871 12.8467 20.167 12.4595 20.6356 12.4595H26.5749C27.0435 12.4595 27.4234 12.8467 27.4234 13.3243C27.4234 13.802 27.0435 14.1892 26.5749 14.1892H20.6356C20.167 14.1892 19.7871 13.802 19.7871 13.3243Z" fill="black"/>
</svg>
