<svg width="16" height="16" viewBox="0 0 16 16" fill="none" xmlns="http://www.w3.org/2000/svg">
<path fill-rule="evenodd" clip-rule="evenodd" d="M15.5876 2.76267C15.784 3.26933 15.9218 3.85422 15.9591 4.704C15.9964 5.55733 16 5.82933 16 8.00178C16 10.1742 15.9902 10.4462 15.9529 11.2996C15.9156 12.1493 15.7778 12.7307 15.5813 13.24C15.1652 14.3155 14.3147 15.1656 13.2391 15.5813C12.7333 15.7778 12.1484 15.9156 11.2978 15.9529C10.4444 15.9911 10.1724 16 8 16C5.82756 16 5.55556 15.9911 4.70222 15.9529C3.85156 15.9156 3.27022 15.7778 2.76089 15.5813C2.22933 15.3813 1.744 15.0658 1.344 14.6596C0.936743 14.2587 0.621072 13.7744 0.418667 13.24C0.222222 12.7333 0.0844444 12.1493 0.0471111 11.2996C0.00888889 10.4462 0 10.1742 0 8.00178C0 5.82933 0.00977778 5.55733 0.0497778 4.70044C0.088 3.85067 0.224889 3.26933 0.422222 2.76C0.622222 2.22844 0.937778 1.744 1.344 1.344C1.74393 0.935592 2.22847 0.619746 2.76356 0.418667C3.27022 0.222222 3.85422 0.0844444 4.70578 0.0471111C5.55911 0.00888889 5.83022 0 8.00356 0C10.176 0 10.448 0.00977778 11.3049 0.0497778C12.1547 0.0871111 12.736 0.224889 13.2453 0.422222C13.7788 0.623345 14.2622 0.937843 14.6622 1.344C15.0706 1.7436 15.3865 2.22785 15.5876 2.76267ZM14.2427 12.7218C14.3529 12.44 14.4836 12.0178 14.5182 11.2373V11.2365C14.5565 10.3929 14.5654 10.1422 14.5654 8.00801C14.5654 5.8729 14.5556 5.62045 14.5182 4.77601C14.4836 3.99734 14.3529 3.57245 14.2427 3.29156C14.1147 2.94437 13.911 2.63008 13.6462 2.37156C13.3894 2.10668 13.0738 1.90312 12.7262 1.77601C12.4454 1.66579 12.024 1.53512 11.2418 1.50045C10.4009 1.46223 10.1476 1.45334 8.0098 1.45334C5.87468 1.45334 5.62135 1.46312 4.77691 1.49956C3.99824 1.53512 3.57335 1.66579 3.29157 1.77512C2.94491 1.90312 2.63202 2.10579 2.37246 2.37245C2.10402 2.62845 1.90046 2.9449 1.77335 3.29156C1.66313 3.57245 1.53157 3.99379 1.49779 4.77601C1.45957 5.6169 1.45068 5.8729 1.45068 8.00801C1.45068 10.1422 1.45957 10.3956 1.49691 11.24C1.53246 12.0178 1.66313 12.4436 1.77246 12.7245C1.90077 13.0714 2.10483 13.3854 2.36979 13.6436C2.62736 13.909 2.94154 14.1129 3.28891 14.24C3.56979 14.3493 3.99202 14.4809 4.77335 14.5156C5.61513 14.5529 5.87113 14.5618 8.00624 14.5618C10.1414 14.5618 10.3947 14.5529 11.2391 14.5156C12.0169 14.4809 12.4427 14.3493 12.7236 14.24C13.4214 13.9708 13.9731 13.4195 14.2427 12.7218Z" fill="url(#paint0_linear_2935_3541)"/>
<path fill-rule="evenodd" clip-rule="evenodd" d="M4 8C4 5.792 5.792 4 8 4C10.208 4 12 5.792 12 8C12 10.208 10.208 12 8 12C5.792 12 4 10.208 4 8ZM5.69568 9.31733C6.17454 10.1303 7.05683 10.6193 8.00001 10.5947C9.40656 10.5578 10.5276 9.40702 10.5276 7.99999C10.5276 6.59296 9.40656 5.44215 8.00001 5.40533C7.05683 5.38063 6.17454 5.8697 5.69568 6.68265C5.21682 7.4956 5.21682 8.50438 5.69568 9.31733Z" fill="url(#paint1_linear_2935_3541)"/>
<path d="M13.4222 3.95557C13.4222 4.52013 12.9645 4.97779 12.4 4.97779C11.8354 4.97779 11.3777 4.52013 11.3777 3.95557C11.3777 3.39101 11.8354 2.93335 12.4 2.93335C12.9645 2.93335 13.4222 3.39101 13.4222 3.95557Z" fill="#BB31A2"/>
<defs>
<linearGradient id="paint0_linear_2935_3541" x1="8.69776" y1="26.3589" x2="23.5275" y2="7.41488" gradientUnits="userSpaceOnUse">
<stop stop-color="#FFC107"/>
<stop offset="0.507" stop-color="#F44336"/>
<stop offset="1" stop-color="#6827B0"/>
</linearGradient>
<linearGradient id="paint1_linear_2935_3541" x1="8.23328" y1="16.3717" x2="14.7214" y2="8.47232" gradientUnits="userSpaceOnUse">
<stop stop-color="#FFC107"/>
<stop offset="0.507" stop-color="#F44336"/>
<stop offset="1" stop-color="#9C27B0"/>
</linearGradient>
</defs>
</svg>
