<svg width="50" height="50" viewBox="0 0 50 50" fill="none" xmlns="http://www.w3.org/2000/svg">
<rect x="14" y="13" width="23" height="23" rx="4" stroke="black" stroke-width="2"/>
<path d="M16.79 27H18.25V21.4H16.79V27ZM17.53 20.5C18.03 20.5 18.4 20.16 18.4 19.7C18.4 19.22 18.03 18.9 17.53 18.9C17.02 18.9 16.65 19.22 16.65 19.7C16.65 20.16 17.02 20.5 17.53 20.5ZM19.7871 27H21.2471V23.15C21.6471 22.73 22.0071 22.52 22.3271 22.52C22.8571 22.52 23.1071 22.83 23.1071 23.69V27H24.5771V23.15C24.9771 22.73 25.3371 22.52 25.6571 22.52C26.1871 22.52 26.4371 22.83 26.4371 23.69V27H27.9071V23.51C27.9071 22.1 27.3571 21.26 26.1671 21.26C25.4371 21.26 24.8971 21.7 24.3871 22.24C24.1171 21.62 23.6471 21.26 22.8471 21.26C22.1171 21.26 21.5971 21.66 21.1271 22.15H21.0871L20.9871 21.4H19.7871V27ZM31.3558 29.43C33.2258 29.43 34.3958 28.57 34.3958 27.44C34.3958 26.46 33.6658 26.04 32.3158 26.04H31.3658C30.7058 26.04 30.4858 25.88 30.4858 25.58C30.4858 25.36 30.5658 25.23 30.7258 25.1C30.9658 25.18 31.2258 25.23 31.4458 25.23C32.6458 25.23 33.6058 24.59 33.6058 23.33C33.6058 22.98 33.4958 22.67 33.3458 22.48H34.3058V21.4H32.2858C32.0558 21.32 31.7558 21.26 31.4458 21.26C30.2558 21.26 29.1858 21.97 29.1858 23.29C29.1858 23.94 29.5458 24.47 29.9258 24.75V24.79C29.5958 25.03 29.3058 25.42 29.3058 25.84C29.3058 26.3 29.5258 26.59 29.8158 26.78V26.83C29.3058 27.12 29.0158 27.52 29.0158 27.99C29.0158 28.98 30.0358 29.43 31.3558 29.43ZM31.4458 24.32C30.9558 24.32 30.5658 23.95 30.5658 23.29C30.5658 22.63 30.9458 22.26 31.4458 22.26C31.9458 22.26 32.3158 22.63 32.3158 23.29C32.3158 23.95 31.9358 24.32 31.4458 24.32ZM31.5758 28.5C30.7558 28.5 30.2358 28.23 30.2358 27.76C30.2358 27.53 30.3558 27.31 30.6058 27.11C30.8058 27.16 31.0458 27.19 31.3858 27.19H32.0658C32.6658 27.19 32.9958 27.29 32.9958 27.69C32.9958 28.13 32.4158 28.5 31.5758 28.5Z" fill="black"/>
</svg>
