<svg width="16" height="16" viewBox="0 0 16 16" fill="none" xmlns="http://www.w3.org/2000/svg">
<rect width="16" height="16" rx="4" fill="#D4D8E0"/>
<path fill-rule="evenodd" clip-rule="evenodd" d="M8.22258 10.7999C7.48661 10.7999 6.88889 10.173 6.88889 9.39954C6.88889 8.62678 7.48661 7.99991 8.22258 7.99991C8.95855 7.99991 9.55556 8.62678 9.55556 9.39954C9.55556 10.173 8.95855 10.7999 8.22258 10.7999ZM6.40367 6.79868V3.33325H4.66669V12.4393H6.42643V11.7257C6.42643 11.7257 6.94627 12.6666 8.25836 12.6666C8.25836 12.6666 11.3334 12.5533 11.3334 9.26883C11.3334 9.26883 11.2195 5.93876 8.25836 5.93876C8.25836 5.93876 7.28623 5.93876 6.40367 6.79868Z" fill="white"/>
</svg>
