<svg width="50" height="50" viewBox="0 0 50 50" fill="none" xmlns="http://www.w3.org/2000/svg">
<path fill-rule="evenodd" clip-rule="evenodd" d="M33 14H18C16.3431 14 15 15.3431 15 17V32C15 33.6569 16.3431 35 18 35H33C34.6569 35 36 33.6569 36 32V17C36 15.3431 34.6569 14 33 14ZM18 12C15.2386 12 13 14.2386 13 17V32C13 34.7614 15.2386 37 18 37H33C35.7614 37 38 34.7614 38 32V17C38 14.2386 35.7614 12 33 12H18Z" fill="black"/>
<path fill-rule="evenodd" clip-rule="evenodd" d="M20 18H31V22C31 22.5523 30.5523 23 30 23C29.4477 23 29 22.5523 29 22V20H22V22C22 22.5523 21.5523 23 21 23C20.4477 23 20 22.5523 20 22V18Z" fill="black"/>
<path fill-rule="evenodd" clip-rule="evenodd" d="M25.5 18C26.0523 18 26.5 18.4477 26.5 19V29C26.5 29.5523 26.0523 30 25.5 30C24.9477 30 24.5 29.5523 24.5 29V19C24.5 18.4477 24.9477 18 25.5 18Z" fill="black"/>
<path fill-rule="evenodd" clip-rule="evenodd" d="M21.8 30C21.8 29.4477 22.2477 29 22.8 29H28.2C28.7523 29 29.2 29.4477 29.2 30C29.2 30.5523 28.7523 31 28.2 31H22.8C22.2477 31 21.8 30.5523 21.8 30Z" fill="black"/>
</svg>
