<svg width="16" height="16" viewBox="0 0 16 16" fill="none" xmlns="http://www.w3.org/2000/svg">
<path fill-rule="evenodd" clip-rule="evenodd" d="M2.88649 14.2814C4.59608 14.3829 6.30889 14.4074 8.02169 14.3969C8.24973 14.3969 8.47813 14.3977 8.70665 14.3984C9.16404 14.4 9.62191 14.4016 10.0783 14.3969C11.2449 14.3794 12.4114 14.3339 13.5747 14.2499C14.664 14.1694 15.4064 13.662 15.7181 12.3672C15.8563 11.8038 15.8916 11.2299 15.927 10.6559C16.0298 8.95519 16.0266 7.25444 15.9012 5.55369C15.8563 4.92728 15.7727 4.31837 15.5574 3.73046C15.3357 3.11805 14.9243 2.7401 14.3716 2.51614C14.0044 2.36814 13.6189 2.34764 13.234 2.32718C13.1912 2.3249 13.1483 2.32262 13.1055 2.32017C11.7205 2.24318 10.3322 2.20468 8.94718 2.18718C7.14761 2.16619 5.34804 2.20818 3.55169 2.28867C3.44822 2.29345 3.34462 2.29716 3.24103 2.30088C2.81375 2.3162 2.38642 2.33152 1.96742 2.42165C1.34721 2.55463 0.833048 2.87308 0.537404 3.51349C0.412077 3.78645 0.318885 4.07341 0.254614 4.36736C0.0948603 5.08666 0.0672749 5.82515 0.0398863 6.55837C0.0386264 6.5921 0.0373668 6.62582 0.0360949 6.65953C-0.0217485 8.10131 -0.0153214 9.5466 0.0939382 10.9919C0.145355 11.6918 0.23212 12.3777 0.508482 13.0286C0.672372 13.4205 0.932667 13.697 1.27009 13.8965C1.77461 14.1939 2.33055 14.2464 2.88649 14.2814ZM8.32674 9.62872C7.66386 10.0241 7.00098 10.4196 6.33456 10.8169V5.26673C7.17336 5.7679 8.00747 6.26497 8.84399 6.76349C9.55538 7.18743 10.2685 7.61241 10.9877 8.04182C10.0951 8.57383 9.21094 9.10127 8.32674 9.62872Z" fill="#FF0000"/>
<path d="M6.33459 10.8169C6.33459 8.9622 6.33459 7.13197 6.33459 5.27024C7.88672 6.1941 9.42279 7.11097 10.9878 8.04533C9.426 8.97619 7.88994 9.88956 6.33459 10.8169Z" fill="#FEFDFD"/>
</svg>
