<svg width="28" height="28" viewBox="0 0 28 28" fill="none" xmlns="http://www.w3.org/2000/svg">
<path fill-rule="evenodd" clip-rule="evenodd" d="M12.4531 4.5H15.5612L16.394 6.79864L17.4982 7.31759L20.023 5.98786L22.0913 8.96629L20.5035 10.9669L20.9909 11.8833L23.5143 12.3879V15.7041L21.0086 16.4892L20.4934 17.4683L22.1335 19.7645L19.9163 21.8487L17.4744 20.3184L16.4087 20.8193L15.582 23.5143H12.4322L11.6056 20.8193L10.5639 20.3297L8.09157 22.1428L5.90221 19.7345L7.5255 17.4619L7.00369 16.4183L4.5 15.7172V12.3879L7.02338 11.8833L7.51078 10.9669L5.92796 8.97259L7.99164 5.87706L10.5258 7.31306L11.6203 6.79864L12.4531 4.5ZM13.2245 5.6L12.4996 7.60079L10.4786 8.55067L8.33941 7.33847L7.28757 8.91623L8.82028 10.8474L7.74991 12.8597L5.6 13.2897V14.8829L7.7696 15.4904L8.80556 17.5623L7.31332 19.6515L8.23949 20.6702L10.4404 19.0562L12.5143 20.031L13.2454 22.4143H14.7689L15.5 20.031L17.5498 19.0675L19.7812 20.4659L20.6796 19.6215L19.2042 17.5559L20.2466 15.5753L22.4143 14.8961V13.2897L20.2644 12.8597L19.194 10.8474L20.7217 8.92253L19.6745 7.4146L17.5261 8.54614L15.5147 7.60079L14.7898 5.6H13.2245Z" fill="#222222" stroke="black" stroke-width="0.1"/>
<path fill-rule="evenodd" clip-rule="evenodd" d="M14.0073 10.893C12.2873 10.893 10.893 12.2873 10.893 14.0073C10.893 15.7272 12.2873 17.1215 14.0073 17.1215C15.7272 17.1215 17.1215 15.7272 17.1215 14.0073C17.1215 12.2873 15.7272 10.893 14.0073 10.893ZM9.79297 14.0073C9.79297 11.6798 11.6798 9.79297 14.0073 9.79297C16.3347 9.79297 18.2215 11.6798 18.2215 14.0073C18.2215 16.3347 16.3347 18.2215 14.0073 18.2215C11.6798 18.2215 9.79297 16.3347 9.79297 14.0073Z" fill="#222222" stroke="black" stroke-width="0.1"/>
</svg>
