<svg width="16" height="16" viewBox="0 0 16 16" fill="none" xmlns="http://www.w3.org/2000/svg">
<path fill-rule="evenodd" clip-rule="evenodd" d="M16 4.66667C16 2.08934 13.9107 0 11.3333 0H4.66667C2.08934 0 0 2.08934 0 4.66667V11.3333C0 13.9107 2.08934 16 4.66667 16H11.3333C13.9107 16 16 13.9107 16 11.3333V4.66667ZM4.66667 1.4H11.3333L11.4788 1.40318C13.2155 1.47931 14.6 2.9113 14.6 4.66667V11.3333L14.5968 11.4788C14.5207 13.2155 13.0887 14.6 11.3333 14.6H4.66667L4.52116 14.5968C2.78455 14.5207 1.4 13.0887 1.4 11.3333V4.66667L1.40318 4.52116C1.47931 2.78455 2.9113 1.4 4.66667 1.4Z" fill="#D4D8E0"/>
<path fill-rule="evenodd" clip-rule="evenodd" d="M3.96686 8.03933C3.94556 5.81124 5.73318 3.98815 7.96105 3.96686L8.11228 3.96819C10.2704 4.02706 12.0123 5.78423 12.0332 7.96068C12.0545 10.1885 10.2672 12.011 8.03897 12.0332C5.81181 12.0544 3.98905 10.2667 3.96686 8.03933ZM10.6332 7.97407C10.6193 6.5203 9.42884 5.35289 7.97443 5.36679L7.83894 5.37152C6.44811 5.45534 5.35332 6.61632 5.3668 8.02566C5.38128 9.47987 6.57141 10.6471 8.02531 10.6332C9.48029 10.6187 10.6471 9.42893 10.6332 7.97407Z" fill="#D4D8E0"/>
<path fill-rule="evenodd" clip-rule="evenodd" d="M13.3333 3.65677C13.3388 4.209 12.8954 4.66112 12.3432 4.66662C11.791 4.67212 11.3389 4.2288 11.3334 3.67657C11.3279 3.12435 11.7712 2.67112 12.3234 2.66672C12.8756 2.66122 13.3278 3.10454 13.3333 3.65677Z" fill="#D4D8E0"/>
</svg>
