<svg xmlns="http://www.w3.org/2000/svg" xmlns:xlink="http://www.w3.org/1999/xlink" width="20" height="15"><defs><path id="a" d="M0 0h20v15H0z"/></defs><g fill="none" fill-rule="evenodd"><mask id="b" fill="#fff"><use xlink:href="#a"/></mask><g mask="url(#b)" fill-rule="nonzero"><path fill="#F50013" d="M0 0h22.5v15H0z"/><path fill="#00189A" d="M0 0h22.5v7.5H0z"/><path fill="#FEFFFF" d="M0 0l12.911 7.49L0 14.971V0z"/><path fill="#ECA300" d="M.612 13.659l.131-.577-.518-.287.603-.075.137-.577.241.531.604-.07-.454.404.236.534-.522-.282-.458.399zm2.746-7.456l-.463-.795-.267-.03.635.9.095-.075zm-.36.365l-.974-.75-.035-.436.394-.014.806.985-.19.215zm-.148.171l-.801-.453-.034-.266.91.623-.075.096zm1.654-.7l.242-.888-.165-.21-.197 1.083.12.016zm-.512 0l-.15-1.22.287-.33.286.27-.137 1.265-.286.015zm-.226.015l-.24-.889.166-.21.195 1.084-.12.015zm1.667.702l.808-.442.037-.266-.917.61.072.098zm-.355-.37l.775-.953.437-.024.003.394-1.005.78-.21-.196zm-.167-.152l.473-.79.267-.026-.646.893-.094-.077zm.666 1.635l.888.242.212-.165-1.085-.197-.015.12zm.001-.512l1.22-.149.331.287-.272.286-1.264-.138-.015-.286zm-.015-.226l.89-.24.21.166-1.085.195-.015-.12zm-.662 1.643l.467.794.266.029-.638-.898-.095.075zm.358-.366l.977.746.037.436-.394.015-.81-.982.19-.215zm.147-.172l.804.45.035.265-.912-.618.073-.097zm-1.647.708l-.236.89.167.21.19-1.086-.121-.014zm.512-.003l.157 1.219-.284.333-.288-.27.129-1.265.286-.017zm.225-.017l.247.887-.165.212-.202-1.083.12-.016zm-1.664-.678l-.8.455-.034.266.908-.625-.074-.096zm.36.363l-.759.967-.437.03-.01-.394.994-.795.212.192zm.17.15l-.46.797-.267.031.632-.903.095.075zm-.689-1.637l-.89-.236-.21.167 1.086.19.014-.121zm.003.512l-1.219.157-.333-.284.27-.288 1.265.129.017.286zm.016.226l-.887.246-.212-.165 1.084-.202.015.12zm7.987.414l-.344-.483-.559.196.345-.5L9.782 7l.557.174.35-.497-.001.608.555.179-.557.202-.007.608zM.942 2.879l-.106-.583-.59-.059.525-.307-.101-.584.43.393.528-.302-.259.55.427.398-.59-.054-.264.548z"/><circle cx="4.126" cy="7.49" r="1.546" fill="#ECA300"/></g></g></svg>