<svg xmlns="http://www.w3.org/2000/svg" width="20" height="15"><g fill="none"><path fill="#DE2110" d="M0 0h20v15H0z"/><path fill="#08399C" d="M0 0h11.311v7.507H0z"/><path fill="#FFF" d="M8.273 5.236l-1.388-.285.295 1.386-1.06-.941-.436 1.348-.447-1.345-1.053.95.286-1.389-1.386.295.94-1.059-1.347-.437 1.344-.447-.948-1.053 1.388.286-.296-1.386 1.06.94.437-1.347.447 1.345 1.052-.95-.285 1.389 1.386-.296L7.32 3.3l1.348.437-1.345.447z"/><path fill="#005387" d="M6.993 5.13l-.438.232-.427.253-.496-.017-.496.006-.421-.263-.433-.242-.233-.437-.253-.426.016-.495-.005-.495.263-.42.243-.432.438-.232.427-.253.497.017.496-.005.421.262.433.242.233.437.253.426-.017.495.006.495-.263.42z"/><path fill="#FFF" d="M7.174 3.762a1.521 1.521 0 1 1-3.042 0 1.521 1.521 0 0 1 3.042 0z"/></g></svg>