<svg width="50" height="50" viewBox="0 0 50 50" fill="none" xmlns="http://www.w3.org/2000/svg">
<path d="M1.25 25C1.25 38.1187 11.8825 48.75 25 48.75C38.1187 48.75 48.75 38.1175 48.75 25C48.75 11.8813 38.1175 1.25 25 1.25C11.8813 1.25 1.25 11.8825 1.25 25Z" fill="white"/>
<path d="M1.25 25C1.25 38.1187 11.8825 48.75 25 48.75C38.1187 48.75 48.75 38.1175 48.75 25C48.75 11.8813 38.1175 1.25 25 1.25C11.8813 1.25 1.25 11.8825 1.25 25ZM0 25C0 11.1925 11.19 0 25 0C38.8075 0 50 11.19 50 25C50 38.8075 38.81 50 25 50C11.1925 50 0 38.81 0 25Z" fill="#E5E5E5"/>
<path d="M24.375 15H25.625V36.25H24.375V15Z" fill="#666666"/>
<path d="M15.8712 25.1L15 24.3438L25.05 13.75L34.7025 24.3525L33.815 25.09L25.0325 15.4437L15.8712 25.1Z" fill="#666666"/>
</svg>
