<svg width="15" height="15" viewBox="0 0 15 15" fill="none" xmlns="http://www.w3.org/2000/svg">
<path fill-rule="evenodd" clip-rule="evenodd" d="M14.6133 2.59C14.7975 3.065 14.9267 3.61333 14.9617 4.41C14.9967 5.21 15 5.465 15 7.50167C15 9.53833 14.9908 9.79333 14.9558 10.5933C14.9208 11.39 14.7917 11.935 14.6075 12.4125C14.2173 13.4208 13.4201 14.2177 12.4117 14.6075C11.9375 14.7917 11.3892 14.9208 10.5917 14.9558C9.79167 14.9917 9.53667 15 7.5 15C5.46333 15 5.20833 14.9917 4.40833 14.9558C3.61083 14.9208 3.06583 14.7917 2.58833 14.6075C2.09 14.42 1.635 14.1242 1.26 13.7433C0.878196 13.3675 0.582255 12.9135 0.3925 12.4125C0.208333 11.9375 0.0791667 11.39 0.0441667 10.5933C0.00833333 9.79333 0 9.53833 0 7.50167C0 5.465 0.00916667 5.21 0.0466667 4.40667C0.0825 3.61 0.210833 3.065 0.395833 2.5875C0.583333 2.08917 0.879167 1.635 1.26 1.26C1.63494 0.877117 2.08919 0.581011 2.59083 0.3925C3.06583 0.208333 3.61333 0.0791667 4.41167 0.0441667C5.21167 0.00833333 5.46583 0 7.50333 0C9.54 0 9.795 0.00916667 10.5983 0.0466667C11.395 0.0816667 11.94 0.210833 12.4175 0.395833C12.9176 0.584386 13.3708 0.879227 13.7458 1.26C14.1287 1.63463 14.4248 2.08861 14.6133 2.59ZM13.3525 11.9267C13.4558 11.6625 13.5783 11.2667 13.6108 10.535V10.5342C13.6467 9.74334 13.655 9.50834 13.655 7.50751C13.655 5.50584 13.6458 5.26917 13.6108 4.47751C13.5783 3.74751 13.4558 3.34917 13.3525 3.08584C13.2325 2.76035 13.0415 2.4657 12.7933 2.22334C12.5525 1.97501 12.2567 1.78417 11.9308 1.66501C11.6675 1.56167 11.2725 1.43917 10.5392 1.40667C9.75082 1.37084 9.51332 1.36251 7.50915 1.36251C5.50749 1.36251 5.26999 1.37167 4.47832 1.40584C3.74832 1.43917 3.34999 1.56167 3.08582 1.66417C2.76082 1.78417 2.46749 1.97417 2.22415 2.22417C1.97249 2.46417 1.78165 2.76084 1.66249 3.08584C1.55915 3.34917 1.43582 3.74417 1.40415 4.47751C1.36832 5.26584 1.35999 5.50584 1.35999 7.50751C1.35999 9.50834 1.36832 9.74584 1.40332 10.5375C1.43665 11.2667 1.55915 11.6658 1.66165 11.9292C1.78194 12.2545 1.97325 12.5488 2.22165 12.7908C2.46312 13.0397 2.75767 13.2309 3.08332 13.35C3.34665 13.4525 3.74249 13.5758 4.47499 13.6083C5.26415 13.6433 5.50415 13.6517 7.50582 13.6517C9.50749 13.6517 9.74499 13.6433 10.5367 13.6083C11.2658 13.5758 11.665 13.4525 11.9283 13.35C12.5825 13.0977 13.0998 12.5807 13.3525 11.9267Z" fill="url(#paint0_linear)"/>
<path fill-rule="evenodd" clip-rule="evenodd" d="M3.75 7.5C3.75 5.43 5.43 3.75 7.5 3.75C9.57 3.75 11.25 5.43 11.25 7.5C11.25 9.57 9.57 11.25 7.5 11.25C5.43 11.25 3.75 9.57 3.75 7.5ZM5.33968 8.735C5.78861 9.49714 6.61576 9.95564 7.49999 9.93249C8.81863 9.89797 9.86964 8.81908 9.86964 7.49999C9.86964 6.1809 8.81863 5.10201 7.49999 5.06749C6.61576 5.04435 5.78861 5.50285 5.33968 6.26499C4.89074 7.02713 4.89074 7.97286 5.33968 8.735Z" fill="url(#paint1_linear)"/>
<path d="M12.5832 3.70833C12.5832 4.23761 12.1541 4.66667 11.6248 4.66667C11.0956 4.66667 10.6665 4.23761 10.6665 3.70833C10.6665 3.17906 11.0956 2.75 11.6248 2.75C12.1541 2.75 12.5832 3.17906 12.5832 3.70833Z" fill="#BB31A2"/>
<defs>
<linearGradient id="paint0_linear" x1="8.15415" y1="24.7114" x2="22.057" y2="6.95145" gradientUnits="userSpaceOnUse">
<stop stop-color="#FFC107"/>
<stop offset="0.507" stop-color="#F44336"/>
<stop offset="1" stop-color="#6827B0"/>
</linearGradient>
<linearGradient id="paint1_linear" x1="7.7187" y1="15.3485" x2="13.8014" y2="7.9428" gradientUnits="userSpaceOnUse">
<stop stop-color="#FFC107"/>
<stop offset="0.507" stop-color="#F44336"/>
<stop offset="1" stop-color="#9C27B0"/>
</linearGradient>
</defs>
</svg>
