<svg width="52" height="52" viewBox="0 0 52 52" fill="none" xmlns="http://www.w3.org/2000/svg">
<rect width="52" height="52" rx="7" fill="url(#paint0_linear)"/>
<path d="M36.5462 28.6294V36.9132C36.5462 38.4447 35.3628 39.6977 33.8313 39.7673C32.2303 39.8369 30.9076 38.5143 30.9076 36.9132C30.9076 36.8436 30.9076 30.2305 30.9076 28.6294H27.8447V36.9132C27.8447 38.0966 28.0536 39.0712 28.5408 39.9065C28.9585 40.6722 29.6546 41.2987 30.49 41.7164C31.3949 42.1341 32.4391 42.3429 33.6225 42.3429C33.901 42.3429 34.1794 42.3429 34.4578 42.3429C35.8501 42.2037 37.7296 41.7164 38.7738 40.1153C39.3307 39.28 39.5395 38.2358 39.5395 36.9828C39.5395 36.9132 39.5395 30.3697 39.5395 28.699L36.5462 28.6294Z" fill="white"/>
<path d="M15.7325 28.6294H12.3911L17.4032 42.1341H20.4661L25.4781 28.6294H22.0672L18.9346 37.8182L15.7325 28.6294Z" fill="white"/>
<path d="M21.9973 20.2761L22.3454 20.1369C24.0161 19.3016 24.921 17.8397 24.921 15.8906C24.921 12.6188 22.5542 10.6001 18.7952 10.6001H12.3213V25.8451H15.593V13.4542H18.5167C20.1874 13.4542 21.162 14.2895 21.162 15.821C21.162 16.3083 21.0924 16.7259 20.8835 17.1436C20.7443 17.4917 20.4659 17.9093 20.1178 18.1878C19.8394 18.4662 19.4217 18.6751 19.0736 18.8143C18.656 18.9535 18.2383 19.0231 17.8206 19.0231H17.6118L21.7189 25.7755H25.1299L21.9973 20.2761Z" fill="white"/>
<path d="M31.1163 19.5104H38.6343V16.7955H31.1163V13.1061H39.2608V10.6001H27.7749V25.8451H39.2608V23.3391H31.1163V19.5104Z" fill="white"/>
<defs>
<linearGradient id="paint0_linear" x1="2.30507e-06" y1="-4.36719" x2="67.0222" y2="77.4222" gradientUnits="userSpaceOnUse">
<stop offset="0.0562562" stop-color="#5200FF"/>
<stop offset="0.819439" stop-color="#DB00FF"/>
</linearGradient>
</defs>
</svg>
