<svg xmlns="http://www.w3.org/2000/svg" xmlns:xlink="http://www.w3.org/1999/xlink" width="90" height="37" viewBox="0 0 90 37"><defs><path id="a" d="M0 35.733h88.966V.418H0z"/><path id="c" d="M0 35.733h88.966V.418H0z"/></defs><g fill="none" fill-rule="evenodd" transform="translate(0 1)"><path fill="#CCC" fill-rule="nonzero" d="M37.091 30.754c1.368 0 2.468 1.042 2.468 2.49 0 1.448-1.1 2.489-2.468 2.489-1.32 0-2.386-.96-2.469-2.318l-.005-.171c0-1.448 1.1-2.49 2.474-2.49zm-25.816 0c1.367 0 2.466 1.042 2.466 2.49 0 1.448-1.099 2.489-2.466 2.489-1.321 0-2.387-.96-2.47-2.318l-.005-.171v-.001l.005-.17c.083-1.359 1.15-2.319 2.47-2.319zm-8.815.004c.86 0 1.495.321 1.918.963l-.572.414c-.267-.421-.718-.7-1.345-.7-.995 0-1.7.771-1.7 1.805 0 1.034.705 1.812 1.7 1.812.662 0 1.106-.3 1.416-.763l.571.406c-.416.642-1.093 1.034-1.987 1.034C1.099 35.73 0 34.688 0 33.24s1.1-2.482 2.46-2.482zm51.54.036l2.05 4.9h-.776l-.351-.885h-2.038l-.353.885h-.719l2-4.9H54zm-34.128.025c.987 0 1.741.47 1.741 1.54 0 .721-.387 1.184-.972 1.391l1.128 1.919h-.854l-1.035-1.797h-.868v1.797h-.747v-4.85h1.607zm8.838 0c1.002 0 1.742.5 1.742 1.562 0 1.055-.74 1.569-1.742 1.569h-.796v1.719h-.747v-4.85h1.543zm16.703 0c.987 0 1.74.47 1.74 1.54 0 .721-.386 1.184-.972 1.391l1.129 1.919h-.853l-1.037-1.797h-.867v1.797h-.747v-4.85h1.607zm18.687 0v.663h-1.424v4.187h-.74v-4.187h-1.424v-.663H64.1zm-52.825.613c-1.002 0-1.714.778-1.714 1.812s.712 1.811 1.714 1.811c1 0 1.705-.777 1.705-1.811 0-1.034-.705-1.812-1.705-1.812zm25.816 0c-1.001 0-1.713.778-1.713 1.812s.712 1.811 1.713 1.811c1.001 0 1.706-.777 1.706-1.811 0-1.034-.705-1.812-1.706-1.812zm16.819.777l-.25.653-.521 1.32h1.515l-.744-1.973zm-25.228-.727h-.768v1.805h.768c.649 0 1.009-.293 1.009-.906 0-.62-.367-.899-1.009-.899zm-8.837 0h-.833v1.755h.832c.634 0 1.001-.264 1.001-.878 0-.628-.374-.877-1-.877zm25.54 0h-.832v1.755h.832c.634 0 1-.264 1-.878 0-.628-.373-.877-1-.877zM88.966.417v14.218c0 1.895-.38 3.829-1.406 5.447-1.661 2.617-4.609 3.749-7.594 3.995-2.306.19-4.761-.056-6.869-1.056-1.455-.691-2.7-1.772-3.52-3.166-.924-1.572-1.268-3.413-1.268-5.22V.419l6.266-.002v14.257c0 2.306 1.908 4.232 4.21 4.092 2.198-.134 3.915-1.903 3.915-4.083L82.702.419l.833-.001 5.431-.001zM10.089.418c6.22 0 9.671 3.549 9.671 8.385 0 3.025-1.446 5.429-4.167 6.749l4.556 8.525h-6.693L7.527 12.996c.411.019.822.011 1.234.011a4.87 4.87 0 0 0 1.698-.302c.52-.194 1-.482 1.416-.849.416-.367.75-.818.98-1.323.24-.544.352-1.136.325-1.73-.078-1.946-1.186-3.026-3.416-3.026H5.933v18.3H0V.418zm29.953 0v4.799h-11.1v4.42h10.153v5.047H28.942v4.611h11.1v4.783h-17.15V.418h17.15zm8.704 0l5.342 14.438L59.468.418h6.466l-9.373 23.658h-4.757L42.306.418h6.44z"/><mask id="b" fill="#fff"><use xlink:href="#a"/></mask><path fill="#CCC" fill-rule="nonzero" d="M69.195 35.669h.74v-4.85h-.74z" mask="url(#b)"/><mask id="d" fill="#fff"><use xlink:href="#c"/></mask><path fill="#CCC" fill-rule="nonzero" d="M79.207 33.244c0-1.034-.705-1.812-1.705-1.812-1.002 0-1.714.778-1.714 1.812s.712 1.811 1.714 1.811c1 0 1.705-.777 1.705-1.811zm-1.705-2.49c1.367 0 2.467 1.042 2.467 2.49 0 1.448-1.1 2.489-2.467 2.489-1.376 0-2.475-1.041-2.475-2.49 0-1.447 1.1-2.489 2.475-2.489zm7.241 1.617l-.001.623v2.675h-.69v-4.9h.186l2.555 2.874c.184.2.398.466.398.466s-.003-.352-.003-.623V30.82h.691v4.9h-.187l-2.549-2.882c-.19-.208-.4-.467-.4-.467z" mask="url(#d)"/></g></svg>
