<svg width="24" height="24" viewBox="0 0 24 24" fill="none" xmlns="http://www.w3.org/2000/svg">
<path fill-rule="evenodd" clip-rule="evenodd" d="M12.5 19.86C17.1171 19.86 20.86 16.1171 20.86 11.5C20.86 6.8829 17.1171 3.14 12.5 3.14C7.8829 3.14 4.14 6.8829 4.14 11.5C4.14 16.1171 7.8829 19.86 12.5 19.86ZM12.5 21C17.7467 21 22 16.7467 22 11.5C22 6.25329 17.7467 2 12.5 2C7.25329 2 3 6.25329 3 11.5C3 16.7467 7.25329 21 12.5 21Z" fill="#6A6F7D"/>
<path d="M9.13745 12.2323C9.13745 11.9649 9.31439 11.748 9.53265 11.748C9.75091 11.748 9.92785 11.9649 9.92785 12.2323C9.92785 13.2284 10.5869 14.036 11.3998 14.036H11.7597C12.5727 14.036 13.2317 13.2284 13.2317 12.2323C13.2317 11.9649 13.4086 11.748 13.6269 11.748C13.8452 11.748 14.0221 11.9649 14.0221 12.2323C14.0221 13.7633 13.0092 15.0045 11.7597 15.0045H11.3998C10.1504 15.0045 9.13745 13.7633 9.13745 12.2323Z" fill="#6A6F7D"/>
<path fill-rule="evenodd" clip-rule="evenodd" d="M9.5331 11.8359C9.37867 11.8359 9.22502 11.9963 9.22502 12.233C9.22502 13.7333 10.2146 14.9181 11.4003 14.9181H11.7601C12.9458 14.9181 13.9354 13.7333 13.9354 12.233C13.9354 11.9963 13.7818 11.8359 13.6273 11.8359C13.4729 11.8359 13.3193 11.9963 13.3193 12.233C13.3193 13.2599 12.6369 14.1238 11.7601 14.1238H11.4003C10.5235 14.1238 9.84118 13.2599 9.84118 12.233C9.84118 11.9963 9.68753 11.8359 9.5331 11.8359ZM9.05078 12.233C9.05078 11.9348 9.25101 11.6616 9.5331 11.6616C9.81519 11.6616 10.0154 11.9348 10.0154 12.233C10.0154 13.1984 10.6512 13.9496 11.4003 13.9496H11.7601C12.5093 13.9496 13.145 13.1984 13.145 12.233C13.145 11.9348 13.3453 11.6616 13.6273 11.6616C13.9094 11.6616 14.1097 11.9348 14.1097 12.233C14.1097 13.7948 13.0735 15.0923 11.7601 15.0923H11.4003C10.087 15.0923 9.05078 13.7948 9.05078 12.233Z" fill="#6A6F7D"/>
<path d="M14.2905 9.03005C14.5536 9.43511 15.0951 9.55044 15.5009 9.28814C15.906 9.02512 16.0213 8.48363 15.7583 8.07786C15.4953 7.67209 14.9537 7.55676 14.5479 7.81977C14.1428 8.08278 14.0275 8.62498 14.2905 9.03005Z" fill="#6A6F7D"/>
<path d="M7.46558 8.55371C7.46558 9.03693 7.85736 9.42871 8.34058 9.42871C8.82379 9.42871 9.21557 9.03693 9.21557 8.55371C9.21557 8.07049 8.82379 7.67871 8.34058 7.67871C7.85736 7.67871 7.46558 8.07049 7.46558 8.55371Z" fill="#6A6F7D"/>
</svg>
