<?xml version="1.0" encoding="utf-8"?>
<!-- Generator: Adobe Illustrator 26.3.0, SVG Export Plug-In . SVG Version: 6.00 Build 0)  -->
<svg version="1.1" id="Layer_1" xmlns="http://www.w3.org/2000/svg" xmlns:xlink="http://www.w3.org/1999/xlink" x="0px" y="0px"
	 viewBox="0 0 76 19" style="enable-background:new 0 0 76 19;" xml:space="preserve" width="76" height="19">
<style type="text/css">
	.st0{fill:#6950F5;}
	.st1{fill-rule:evenodd;clip-rule:evenodd;fill:#FFFFFF;}
	.st2{fill:#FFFFFF;}
	.st3{fill-rule:evenodd;clip-rule:evenodd;fill:#DDDDDD;}
</style>
<g>
	<circle class="st0" cx="9.5" cy="9.4" r="8.5"/>
	<path class="st1" d="M13.8,5.6c0.4,0.2,0.4,0.7,0.2,1.1l-4.8,7L5,9C4.7,8.7,4.8,8.2,5.1,8C5.4,7.7,5.9,7.7,6.2,8L9,11.2l3.7-5.4
		C12.9,5.5,13.4,5.4,13.8,5.6z"/>
</g>
<g>
	<circle xmlns="http://www.w3.org/2000/svg" class="st2" cx="28.5" cy="9.4" r="8.5"/>
	<path class="st3" d="M20.8,9.4c0,4.2,3.4,7.6,7.6,7.6S36,13.6,36,9.4s-3.4-7.6-7.6-7.6S20.8,5.2,20.8,9.4z M28.4,0.9
		c-4.7,0-8.5,3.8-8.5,8.5c0,4.7,3.8,8.5,8.5,8.5c4.7,0,8.5-3.8,8.5-8.5C36.9,4.7,33.1,0.9,28.4,0.9z"/>
	<path class="st3" d="M32.7,5.6c0.4,0.2,0.4,0.7,0.2,1.1l-4.8,7L24,9C23.7,8.7,23.7,8.2,24,8c0.3-0.3,0.8-0.3,1.1,0.1l2.9,3.2
		l3.7-5.4C31.9,5.5,32.4,5.4,32.7,5.6z"/>
</g>
<g>
	<circle class="st0" cx="47.3" cy="9.4" r="8.5"/>
	<path class="st1" d="M51.6,5.6c0.4,0.2,0.4,0.7,0.2,1.1l-4.8,7L42.9,9C42.6,8.7,42.6,8.2,43,8c0.3-0.3,0.8-0.3,1.1,0.1l2.9,3.2
		l3.7-5.4C50.8,5.5,51.3,5.4,51.6,5.6z"/>
</g>
<g>
	<circle xmlns="http://www.w3.org/2000/svg" class="st2" cx="66.2" cy="9.4" r="8.5"/>
	<path class="st3" d="M58.7,9.4c0,4.2,3.4,7.6,7.6,7.6s7.6-3.4,7.6-7.6s-3.4-7.6-7.6-7.6S58.7,5.2,58.7,9.4z M66.3,0.9
		c-4.7,0-8.5,3.8-8.5,8.5c0,4.7,3.8,8.5,8.5,8.5c4.7,0,8.5-3.8,8.5-8.5C74.8,4.7,71,0.9,66.3,0.9z"/>
	<path class="st3" d="M70.6,5.6c0.4,0.2,0.4,0.7,0.2,1.1l-4.8,7L61.8,9c-0.3-0.3-0.3-0.8,0.1-1.1C62.2,7.7,62.7,7.7,63,8l2.9,3.2
		l3.7-5.4C69.7,5.5,70.2,5.4,70.6,5.6z"/>
</g>
</svg>
