<svg width="24" height="24" viewBox="0 0 24 24" fill="none" xmlns="http://www.w3.org/2000/svg">
<path fill-rule="evenodd" clip-rule="evenodd" d="M12.1275 3.5C8.60732 3.5 5.80273 5.99782 5.80273 9.60636V10.2979H6.42196C7.00749 10.2979 7.48614 10.7765 7.48614 11.362V17.7864C7.48614 18.3719 7.00749 18.8506 6.42196 18.8506H6.41869L5.02971 18.8415H5.02798C3.41399 18.8407 2 17.7277 2 16V13C2 12.1557 2.34796 11.4631 2.92152 10.9908C3.43111 10.5712 4.09448 10.3439 4.80273 10.3042V9.60636C4.80273 5.38918 8.11313 2.5 12.1275 2.5C16.1414 2.5 19.4522 5.37964 19.4522 9.60636V10.4668C19.9067 10.5733 20.3291 10.7359 20.6962 10.9701C21.5112 11.4898 22 12.3286 22 13.5V16C22 16.575 21.883 17.0679 21.6415 17.4764C21.3987 17.8873 21.0507 18.1778 20.6474 18.3792C20.2626 18.5715 19.8183 18.6867 19.3453 18.7541C19.3182 18.8117 19.285 18.8772 19.2449 18.9489C19.1054 19.1985 18.881 19.5246 18.5356 19.8486C17.9112 20.4341 16.9231 20.9829 15.4098 21.0957C15.1563 21.9093 14.3971 22.5 13.5 22.5C12.3954 22.5 11.5 21.6046 11.5 20.5C11.5 19.3954 12.3954 18.5 13.5 18.5C14.4634 18.5 15.2677 19.1812 15.4576 20.0882C16.678 19.973 17.4146 19.5289 17.8515 19.1191C17.9483 19.0284 18.0318 18.9379 18.1036 18.8511H17.8328C17.1017 18.8511 16.5139 18.2632 16.5139 17.5321V11.6173C16.5139 10.8862 17.1017 10.2983 17.8328 10.2983C18.0409 10.2983 18.248 10.3051 18.4522 10.3198V9.60636C18.4522 5.98917 15.6481 3.5 12.1275 3.5ZM3.55717 11.7628C3.21622 12.0436 3 12.452 3 13V16C3 17.0744 3.85992 17.8415 5.02971 17.8415H5.03298V17.8415L6.42276 17.8506C6.43738 17.8504 6.45292 17.8446 6.46651 17.831C6.48036 17.8171 6.48614 17.8012 6.48614 17.7864V11.362C6.48614 11.3472 6.48036 11.3313 6.46651 11.3175C6.45267 11.3036 6.43681 11.2979 6.42196 11.2979H5.02971C4.421 11.2979 3.90799 11.474 3.55717 11.7628ZM17.8328 17.842H17.7554C17.6151 17.8082 17.5139 17.6841 17.5139 17.5321V11.6173C17.5139 11.4385 17.654 11.2983 17.8328 11.2983C18.8063 11.2983 19.6116 11.4644 20.1585 11.8132C20.6699 12.1393 21 12.6512 21 13.5V16C21 16.4396 20.9112 16.7468 20.7806 16.9676C20.6516 17.186 20.4616 17.3543 20.2005 17.4847C19.6514 17.7589 18.8418 17.842 17.8328 17.842ZM13.5 19.5C12.9477 19.5 12.5 19.9477 12.5 20.5C12.5 21.0523 12.9477 21.5 13.5 21.5C14.0523 21.5 14.5 21.0523 14.5 20.5C14.5 19.9477 14.0523 19.5 13.5 19.5Z" fill="#6A6F7D"/>
</svg>
